<svg xmlns="http://www.w3.org/2000/svg" version="1.0" viewBox="0 0 458 458"><g fill="#FFF" stroke-width="0"><path d="M115.2 60.1c-7.9 1.3-19.1 6-27.1 11.3-12.5 8.3-22.3 21.4-27.8 37.1l-2.8 8v225l2.7 8c3.9 11.4 9.2 19.9 17.8 28.5 8.6 8.6 17.1 13.9 28.5 17.8l8 2.7h225l8-2.7c11.4-3.9 19.9-9.2 28.5-17.8 8.6-8.6 13.9-17.1 17.8-28.5l2.7-8v-225l-2.8-8c-7.9-22.4-23.8-38.3-46.2-46.2l-8-2.8-109.5-.1c-60.7-.1-111.9.2-114.8.7zm67.5 46.5c6.1 3.5 9.3 9.4 9.3 17-.1 3.2-.7 7-1.5 8.4-.8 1.4-1.4 4-1.5 5.8 0 4 6.1 16.2 9 18 2.5 1.5 10.6 2.5 41.7 4.7 26.4 2 26.9 1.9 33.7-7.9 3.5-5 4-6.4 3.7-10-.2-2.2-.4-7.1-.5-10.8-.1-5.9.2-7.1 2.9-10.9 3.4-4.7 8.5-7.8 14.5-8.6 11.4-1.6 23.2 10.4 21.7 21.8-1.3 9.9-8.1 16.4-18.6 17.9-7.1 1-8 1.5-13.3 8.8-5.9 8-5.9 10.2 0 21.3 2.7 5.2 8.2 15.8 12.2 23.7 8.5 16.8 9.1 17.2 21 17.2h8l6-5.5c6.9-6.3 9.3-7.5 15.5-7.5 5.7 0 9.3 1.4 13.3 5.3 8.2 7.8 9 18.6 2.1 27-8.3 10-20.7 10.1-30.6.2-3.9-3.9-6.2-5.4-9.1-5.8-5.7-1-14.4.1-17 2.1-3.1 2.2-34 52.8-34.8 56.8-.4 2.4.3 4.8 3 10.2 3.7 7.4 6 9.6 11.1 10.8 11.6 2.7 19.1 13.7 16.4 23.9-2.7 10-9.5 15.5-19.3 15.5-7.6 0-12.9-2.8-16.6-8.6-4-6.4-4.6-10.9-2.1-18 2.8-7.9 2.7-9.5-1.5-17.4-2.6-4.9-4.5-7.3-6.7-8.3-2.1-1-13.1-2.2-32.9-3.7-35.2-2.7-34.4-2.8-41.6 8-3.8 5.5-4.3 6.9-3.7 10 2.2 12.6 1.4 17.4-3.7 23.1-5.8 6.2-14.3 8.4-21.6 5.3-16.5-6.8-17.6-28.5-2-36.5 2.1-1 5-1.9 6.6-1.9 5.5 0 9-2 13.2-7.7 7.5-9.9 7.8-8.5-6.2-36.1-9.4-18.7-12.9-24.7-15-25.8-1.7-.9-5.7-1.4-10.8-1.4h-8l-5.9 5.4c-6.7 6.1-11.3 8-18.2 7.4-9.9-1-17.2-9.4-17.2-19.7 0-6.2 1.7-10.2 6-14.3 8.4-8 21.4-7.4 28.7 1.3 4.3 5.1 6.2 5.8 15.9 5.9 8.6 0 9-.1 11.7-3 1.5-1.6 7-10 12.2-18.7 5.3-8.7 12-19.9 15.1-24.9 7.3-12.2 7.5-13.3 3.4-21.9-1.9-3.9-4.1-7.6-4.9-8.2-.8-.7-4.4-2.2-7.9-3.3-7.3-2.2-10.7-5.2-13.8-12-2.4-5.2-2.6-8.3-1-13.1 4.3-12.9 17.8-18 29.6-11.3z"/><path d="M220.7 189.1c-12.1 1.9-24.1 10.8-29.8 22-5.9 11.7-5.8 24.4.1 36.5 7.1 14.6 19.9 22.4 36.4 22.4 12.2 0 20.2-3.2 28.9-11.3 5.6-5.3 11.1-16.5 12-24.4 1.7-15-5.4-30.5-17.6-38.4-9.4-6.1-19.8-8.5-30-6.8zm16.6 21.3c12.2 5.2 15.9 23.2 6.9 33.7-4.5 5.2-8.5 6.9-16.4 6.9-7.4 0-12.5-2.5-17.1-8.2-2.3-2.9-3-4.9-3.4-10-.7-9 .9-13.9 6-18.3 2.3-2.1 5.1-4.1 6.2-4.5 3.2-1.4 14.3-1.1 17.8.4z"/></g><path fill="#FCF" d="M170.8 103.7c.7.3 1.6.2 1.9-.1.4-.3-.2-.6-1.3-.5-1.1 0-1.4.3-.6.6zm14.2 4.7c0 .2.8 1 1.8 1.7 1.5 1.3 1.6 1.2.3-.4s-2.1-2.1-2.1-1.3zm-32.7 15.1c0 2.2.2 3 .4 1.7.2-1.2.2-3 0-4-.3-.9-.5.1-.4 2.3zm35.8 14.1c0 1.1.3 1.4.6.6.3-.7.2-1.6-.1-1.9-.3-.4-.6.2-.5 1.3zm22.7 21.1c.6.2 1.8.2 2.5 0 .6-.3.1-.5-1.3-.5-1.4 0-1.9.2-1.2.5zm12 1c.7.3 1.6.2 1.9-.1.4-.3-.2-.6-1.3-.5-1.1 0-1.4.3-.6.6zm14 1c.6.2 1.8.2 2.5 0 .6-.3.1-.5-1.3-.5-1.4 0-1.9.2-1.2.5zm13 1c.6.2 1.8.2 2.5 0 .6-.3.1-.5-1.3-.5-1.4 0-1.9.2-1.2.5zm-27 27c.7.3 1.6.2 1.9-.1.4-.3-.2-.6-1.3-.5-1.1 0-1.4.3-.6.6zm6.5 0c.9.2 2.3.2 3 0 .6-.3-.1-.5-1.8-.5-1.6 0-2.2.2-1.2.5zm9.7 22.7c0 .2.8 1 1.8 1.7 1.5 1.3 1.6 1.2.3-.4s-2.1-2.1-2.1-1.3zm5 5c0 .2.8 1 1.8 1.7 1.5 1.3 1.6 1.2.3-.4s-2.1-2.1-2.1-1.3zm-110.3 7.3c1.8.2 5 .2 7 0 2.1-.2.7-.4-3.2-.4-3.8 0-5.5.2-3.8.4zm52.4 1.9c0 1.1.3 1.4.6.6.3-.7.2-1.6-.1-1.9-.3-.4-.6.2-.5 1.3zm126.7 11.1c.7.3 1.6.2 1.9-.1.4-.3-.2-.6-1.3-.5-1.1 0-1.4.3-.6.6zm-68.9 7c-1.3 1.6-1.2 1.7.4.4.9-.7 1.7-1.5 1.7-1.7 0-.8-.8-.3-2.1 1.3zm-4 4c-1.3 1.6-1.2 1.7.4.4.9-.7 1.7-1.5 1.7-1.7 0-.8-.8-.3-2.1 1.3zm-14.6 23c1.5.2 3.7.2 5 0 1.2-.2 0-.4-2.8-.4-2.7 0-3.8.2-2.2.4zm-22.5 28c.7.3 1.6.2 1.9-.1.4-.3-.2-.6-1.3-.5-1.1 0-1.4.3-.6.6zm27 2c.7.3 1.6.2 1.9-.1.4-.3-.2-.6-1.3-.5-1.1 0-1.4.3-.6.6zm12 1c.6.2 1.8.2 2.5 0 .6-.3.1-.5-1.3-.5-1.4 0-1.9.2-1.2.5zm19.4 34.8c0 1.6.2 2.2.5 1.2.2-.9.2-2.3 0-3-.3-.6-.5.1-.5 1.8zm39.9.1c0 1.1.3 1.4.6.6.3-.7.2-1.6-.1-1.9-.3-.4-.6.2-.5 1.3zM267.5 351c1 1.1 2 2 2.3 2 .3 0-.3-.9-1.3-2s-2-2-2.3-2c-.3 0 .3.9 1.3 2zm27.4-.3c-1.3 1.6-1.2 1.7.4.4 1.6-1.3 2.1-2.1 1.3-2.1-.2 0-1 .8-1.7 1.7z"/><path fill="#F6C" d="M195.8 297.7c.7.3 1.6.2 1.9-.1.4-.3-.2-.6-1.3-.5-1.1 0-1.4.3-.6.6zm-18.7 28.9c0 1.1.3 1.4.6.6.3-.7.2-1.6-.1-1.9-.3-.4-.6.2-.5 1.3z"/><path fill="#C06" d="M172.8 104.7c1.7.2 3.2.8 3.2 1.1 0 .4.8.8 1.8.8.9.1 2.6.4 3.7.8 1.1.3.2-.3-2-1.4-2.2-1.1-5.3-1.9-7-1.8l-3 .1 3.3.4zm-7.5 1c-1.3.2-2.3.9-2.3 1.4 0 .5-.6.9-1.4.9-.7 0-1.9.7-2.6 1.5-1.8 2.1 0 1.8 3-.5 1.4-1.1 3.5-2 4.8-2 1.2 0 2.2-.5 2.2-1 0-.6-.3-.9-.7-.9-.5.1-1.8.4-3 .6zM185 110c0 .5.5 1 1.1 1 .5 0 .7-.5.4-1-.3-.6-.8-1-1.1-1-.2 0-.4.4-.4 1zm3 3.9c0 .6.4 1.3 1 1.6.6.3.7-.1.4-.9-.7-1.8-1.4-2.1-1.4-.7zm-34.4 5.7c-.8 2.1-.8 3.4.2 3.4.4 0 .8-1.1.8-2.5.2-2.9-.1-3.2-1-.9zm34.9 12.5c-.4.6-.5 1.2-.2 1.5.2.3.7-.2 1-1.1.7-1.7.1-2-.8-.4zm-30.7 2.1c-1.1 2.8 4.1 6.1 14.4 9.3 3.1 1 5.6 2 5.6 2.4-.1.3 1.2 3.3 3 6.6 1.7 3.3 3.1 5.3 3.2 4.4 0-.8-.4-1.9-.9-2.5-.5-.5-1.2-2-1.6-3.3-.6-1.8-.4-2.2.6-1.6.8.5-.3-.8-2.4-2.8-2.1-2-4.4-3.7-5.2-3.7-.7 0-1.5-.4-1.7-1-.1-.5-1.9-1.1-3.8-1.3-4.9-.6-7.1-1.7-6.3-3.1.3-.6.3-.8-.2-.4-.8.8-2.9-1-3.7-3.2-.3-1.1-.5-1.1-1 .2zM169 137c0 .5.5 1 1 1 .6 0 1-.5 1-1 0-.6-.4-1-1-1-.5 0-1 .4-1 1zm19 6.7c0 .4.5 1.5 1 2.3.8 1.3 1 1.3 1-.2 0-.9-.4-2-1-2.3-.5-.3-1-.3-1 .2zm-6.6 27.5c-3.7 6.3-3.7 6.3-1.1 3.3 2.5-2.8 3.3-4.5 2.3-4.5-.3 0-.8.6-1.2 1.2zm-2.9 7.8c-.3.5-.1 1 .4 1 .6 0 1.1-.5 1.1-1 0-.6-.2-1-.4-1-.3 0-.8.4-1.1 1zm-9 11.7c-3.9 6.5-7.1 12.5-7.3 13.3-.1.8.6 0 1.6-1.8s2.1-3 2.5-2.6c.4.4.7 0 .7-.9 0-2.4 3.8-8.7 7.1-11.8 1.8-1.6 2.9-3.7 2.9-5.3 0-1.4-.1-2.6-.3-2.6-.2 0-3.4 5.3-7.2 11.7zm-10.3 16.5c-.6 1.3-2.3 4.3-3.8 6.8-2.4 3.9-2.5 4.3-.6 2.6 1.2-1.1 2.2-2.5 2.2-3.3 0-.7.3-1.3.8-1.3.9 0 3.6-5.9 3-6.6-.3-.2-1 .6-1.6 1.8zm27.5 8.5c-.4.3-.7 1.6-.6 2.7 0 1.9.1 1.9 1-.3 1-2.4.8-3.6-.4-2.4zm-1.6 11.9c0 1.1.3 1.4.6.6.3-.7.2-1.6-.1-1.9-.3-.4-.6.2-.5 1.3zm-.1 9.2c0 2.3.5 4.2 1 4.2.7 0 .8-1.4.4-3.8-.9-5.1-1.4-5.3-1.4-.4zm-34.3 2.3c.7.7 1.5 1 1.8.7.3-.3-.2-.9-1.2-1.2-1.4-.6-1.5-.5-.6.5zm2.9 5.4c.4.8 1 1.5 1.5 1.5.4 0 .6-.7.3-1.5-.4-.8-1-1.5-1.5-1.5-.4 0-.6.7-.3 1.5zm2.5 3.7c-.1.9.6 2.4 1.5 3.2.8.9 1.3 1.6.9 1.6-.3 0 3.6 8.1 8.7 18 5.1 10 9.4 17.6 9.6 17.1.2-.6-.8-2.9-2.2-5.3l-2.5-4.2 2.1-2.8c1.1-1.6 1.8-3.2 1.5-3.5-.7-.6-3.2 1.7-3.8 3.6-.3.7-1.5-.6-2.7-3.1-1.3-2.5-2-5.1-1.6-6.1.4-1.3.2-1.6-.9-1.2-1 .4-1.7-.2-2.1-1.9-.3-1.4-1.6-4.2-2.8-6.3-1.3-2-2.1-4.8-2-6 .2-1.5-.2-2.3-1.1-2.3-.9 0-1.8-.6-2-1.3-.4-.7-.6-.6-.6.5zm19 43.4c-.1 1.1-1.6 4-3.3 6.4-2.4 3.2-2.8 4.2-1.4 3.7.9-.4 2-.7 2.2-.7.2 0 .4-.8.4-1.9 0-1 1-2.5 2.2-3.3 1.9-1.3 2.1-1.8 1.1-3.9-1.1-2.2-1.2-2.2-1.2-.3zm-8.1 12.9c-1.1 1.3-1 1.4.4.9.9-.3 1.6-1 1.6-1.5 0-1.3-.6-1.1-2 .6zm12.6.2c-.4 1.3-1.2 2.3-1.8 2.3-.6 0-.9.3-.5.6.3.4 0 1.3-.8 2.1s-1.5 2.6-1.4 4.1l.1 2.7.8-2.6c.4-1.5 1.8-4 3-5.7 1.2-1.6 2-3.6 1.8-4.4-.3-.8-.7-.5-1.2.9zm-18.9 3.3c-2.1.4-4.3 1.3-5 2-1 1-.8 1.1.8.5 1.1-.4 3.2-1 4.8-1.3 1.5-.2 3-.8 3.3-1.3.3-.5.4-.8.2-.8-.2.1-2 .5-4.1.9zm-.7 3c0 .5.5 1 1 1 .6 0 1-.5 1-1 0-.6-.4-1-1-1-.5 0-1 .4-1 1zm6 0c0 .5.5 1 1 1 .6 0 1-.5 1-1 0-.6-.4-1-1-1-.5 0-1 .4-1 1zm9.1 10.7c-.1 1.7.4 3.5.9 3.8 1.2.7 1.2-2.2 0-5-.7-1.7-.9-1.5-.9 1.2zm.6 7c-.4.3-.7 2.1-.7 4 0 2.3-.5 3.3-1.6 3.3-.8 0-1.2.5-.9 1 1 1.6-1.4 4-3.3 3.3-1.4-.5-1.5-.3-.4.8 1.8 2 6.1-2.7 7.3-8.1 1-4.3.8-5.6-.4-4.3zm-11.1 15.8c-2.5 1.9-.9 1.9 2.4 0 1.4-.8 1.9-1.4 1-1.4-.8 0-2.4.6-3.4 1.4zm-11.1 1.5c1.1.5 3.6.8 5.5.8h3.5l-3-.8c-1.6-.4-4.1-.8-5.5-.8-2.3-.1-2.3 0-.5.8z"/><path fill="#F9C" d="M157.9 109.7c-1.3 1.6-1.2 1.7.4.4.9-.7 1.7-1.5 1.7-1.7 0-.8-.8-.3-2.1 1.3zm-.9 26.7c0 .2.8 1 1.8 1.7 1.5 1.3 1.6 1.2.3-.4s-2.1-2.1-2.1-1.3zm-51.7 74.3c.9.2 2.5.2 3.5 0 .9-.3.1-.5-1.8-.5-1.9 0-2.7.2-1.7.5zm14.7 4.7c0 .2.8 1 1.8 1.7 1.5 1.3 1.6 1.2.3-.4s-2.1-2.1-2.1-1.3zm11.8 21.3c.7.3 1.6.2 1.9-.1.4-.3-.2-.6-1.3-.5-1.1 0-1.4.3-.6.6zm6.5 0c1.5.2 3.7.2 5 0 1.2-.2 0-.4-2.8-.4-2.7 0-3.8.2-2.2.4zm18.5 111c.6.2 1.8.2 2.5 0 .6-.3.1-.5-1.3-.5-1.4 0-1.9.2-1.2.5z"/><path fill="#C36" d="M149 238.4c0 .2.8 1 1.8 1.7 1.5 1.3 1.6 1.2.3-.4s-2.1-2.1-2.1-1.3z"/><path fill="#F06" d="M169 105.9c0 .5-1.4 1.1-3.1 1.5-1.7.3-4.5 2.1-6.4 4-2.7 2.8-3.4 4.5-3.9 9.3-.8 6.8-.2 10.4 1.9 11.9.8.6 1.5 1.5 1.5 1.9 0 .9 4.7 5.4 5.8 5.6.4.1 2.2.3 4.1.5 1.9.2 3.7.8 4 1.2 1.1 1.6 4.4 2.2 5.7 1.1 1.6-1.3 1.9-8.6.4-9.1-.6-.2-.6-1.8 0-4.3.5-2.2 1-6 1-8.3 0-3.7-.4-4.5-2.2-5-2.1-.5-2.1-.6.8-2.9 2.6-2.1 2.7-2.5 1.2-3.4-1.1-.6-1.5-1.6-1.1-2.6.5-1.2.2-1.5-1-1-.9.3-1.7.2-1.7-.3 0-.6-1.6-1-3.5-1s-3.5.4-3.5.9zm2 31.1c0 .5-.4 1-1 1-.5 0-1-.5-1-1 0-.6.5-1 1-1 .6 0 1 .4 1 1zm9 10c0 .5.5 1 1.1 1 .5 0 .7-.5.4-1-.3-.6-.8-1-1.1-1-.2 0-.4.4-.4 1zm-4.1 38.2c-.1.7-.1 1.7 0 2.1.1.5-.2.6-.7.3-.5-.3-1.6 0-2.5.7-2 1.5-5.7 8.3-5.7 10.3 0 .8-.4 1.3-.9 1-.5-.3-1.5.9-2.2 2.7-.7 1.7-2.1 4.1-3.1 5.1-1 1.1-1.8 2.6-1.8 3.3 0 .7-.4 1.3-.9 1.3s-1.2 1-1.6 2.2c-.4 1.3-.8 2.6-1 3-.1.5-.3 1.2-.4 1.8 0 .5-.8 1-1.7 1-1.2 0-1.5.6-.9 2.2.8 2.5.8 3.2-.1 10-.5 3.9-.1 5.8 2.2 10.8 1.6 3.3 3.5 6 4.2 6 .8 0 1.2.9 1 2.3-.1 1.2.7 4 2 6 1.2 2.1 2.5 4.9 2.8 6.3.4 1.7 1.1 2.3 2.1 1.9 1.1-.4 1.3-.1.9 1.2-.4 1 .3 3.6 1.6 6.1 1.2 2.5 2.4 3.8 2.7 3.1.6-1.9 3.1-4.2 3.8-3.6.3.3-.4 1.9-1.5 3.5l-2.1 2.8 2.5 4 2.4 3.9V281c0-3 0-8.5-.1-12.3 0-6.2.1-6.7 2.1-6.7 1.7 0 2-.4 1.5-1.9-.3-1.1.1-4.5 1-7.5 1.6-5.5 1.2-12.6-.6-12.6-.5 0-.9-.9-.9-2s.4-2 .9-2 1.2-3.5 1.6-7.8c.4-4.2.9-9.7 1.1-12.2.3-2.5.2-6.2-.2-8.3-.5-3.1-1-3.7-3-3.7-2.1 0-2.4-.4-2.4-4 0-2.2.5-4 1-4 .6 0 1-.9 1-2s.5-2 1-2c.6 0 1-1.1 1-2.3 0-3.7-5.8-7.9-6.1-4.5zm7.7 56.3c-.3.8-.1 1.5.4 1.5.6 0 1-.7 1-1.5s-.2-1.5-.4-1.5-.6.7-1 1.5zm-8.3 54.2c-1.3.8-2.3 2.4-2.3 3.4s-.9 2.1-2 2.4c-1.1.3-2 1.1-2 1.7 0 3-8.5 7.1-14.5 6.9-2.3 0-2.6.2-1.5.9 1 .6 1.1 1 .3 1-1 0-1.3 2.4-1.3 8.5 0 7.4.2 8.6 2 9.5 2.1 1.1 2.7 4.4 1 5.5-.5.3-1 1.7-1 3s-.4 2.7-1 3c-2.5 1.6-.8 3.3 4 4 3.8.5 5.6.3 7.5-.9 1.3-.9 3.2-1.6 4.1-1.6 1.4 0 1.5-.2.3-1.7s-1.2-1.6.3-1c1.9.7 4.3-1.7 3.3-3.3-.3-.5.1-1 .9-1 1.1 0 1.6-1 1.6-3.3 0-1.8.5-3.8 1.2-4.5.9-.9.9-1.5 0-2.4-1.8-1.8-1.6-14.3.4-16.2.8-.9 1.2-1.6.7-1.6-.4 0-.2-.4.6-.9 1-.6 1-1.3.3-2.8-.6-1-.8-3.8-.5-6.1.6-4.7.7-4.7-2.4-2.5zM162 311c0 .5-.4 1-1 1-.5 0-1-.5-1-1 0-.6.5-1 1-1 .6 0 1 .4 1 1zm6 0c0 .5-.4 1-1 1-.5 0-1-.5-1-1 0-.6.5-1 1-1 .6 0 1 .4 1 1z"/><path fill="#F9F" d="M206.8 158.7c.6.2 1.8.2 2.5 0 .6-.3.1-.5-1.3-.5-1.4 0-1.9.2-1.2.5zm13 1c.7.3 1.6.2 1.9-.1.4-.3-.2-.6-1.3-.5-1.1 0-1.4.3-.6.6zm14 1c.7.3 1.6.2 1.9-.1.4-.3-.2-.6-1.3-.5-1.1 0-1.4.3-.6.6zm13 1c.7.3 1.6.2 1.9-.1.4-.3-.2-.6-1.3-.5-1.1 0-1.4.3-.6.6zm-41 137c.6.2 1.8.2 2.5 0 .6-.3.1-.5-1.3-.5-1.4 0-1.9.2-1.2.5zm12.5 1c.9.2 2.3.2 3 0 .6-.3-.1-.5-1.8-.5-1.6 0-2.2.2-1.2.5zm14.5 1c.7.3 1.6.2 1.9-.1.4-.3-.2-.6-1.3-.5-1.1 0-1.4.3-.6.6zm13 1c.7.3 1.6.2 1.9-.1.4-.3-.2-.6-1.3-.5-1.1 0-1.4.3-.6.6z"/><path fill="#C03" d="M156.6 112.6c-.5 1.4-.4 1.5.9.4 1.7-1.4 1.9-2 .6-2-.5 0-1.2.7-1.5 1.6zm-1.7 2.6c-.4 1-.6 6.8-.2 6.4.7-.7 1.4-6.6.8-6.6-.3 0-.5.1-.6.2zm-1.2 11c.9 4.9 1.9 5.4 1.5.8-.2-2.2-.8-4-1.3-4s-.6 1.5-.2 3.2zm1.3 6.2c0 .2.7.9 1.5 1.6.9.7 1.5.8 1.5.2 0-.5-.7-1.2-1.5-1.6-.8-.3-1.5-.4-1.5-.2zm6 72.6c0 .5.5 1 1.1 1 .5 0 .7-.5.4-1-.3-.6-.8-1-1.1-1-.2 0-.4.4-.4 1zm-61.5 7.9c-4 1.8-8.7 6.1-6.7 6.1.6 0 1.2-.4 1.4-.8.8-1.9 6.6-5 10.5-5.7 4.5-.7 11.7 1 10.8 2.6-.4.5.1.6.9.3 1-.4 2.5.6 4.2 2.5 1.5 1.8 2.9 2.9 3.2 2.6 1-.9-4.2-5.7-8.3-7.6-5.1-2.4-10.9-2.4-16 0zm54 5.2c-1.1 1.7.1 2.1 1.5.4.8-.9.8-1.5.2-1.5-.6 0-1.4.5-1.7 1.1zm-63.6 4c-.8 1.5-.8 2.4 0 3.2.8.8 1.1.4 1.1-1.5 0-1.5.6-2.9 1.3-3.1.9-.4.9-.6 0-.6-.7-.1-1.7.8-2.4 2zm36.5 1.4c2.2 2.2 20.3 2.1 23.1-.2l2-1.6-2 .9c-3.1 1.3-20.6 1.7-21.8.5-.6-.6-1.5-1.1-2-1.1s-.2.7.7 1.5zm-38.1 6c0 2.2.2 3 .4 1.7.2-1.2.2-3 0-4-.3-.9-.5.1-.4 2.3zm.7 5.5c0 .6.7 1 1.5 1s1.5-.2 1.5-.4-.7-.6-1.5-1c-.8-.3-1.5-.1-1.5.4zm37.9.7c-.9.2-2.2 1.5-2.9 2.8-.7 1.3-2.5 2.8-4 3.4-1.6.5-3.1 1.8-3.4 2.9-.5 1.4-1.9 2.2-4.8 2.6-2.2.4-3.8.9-3.5 1.3.3.3 2.2.2 4.2-.1 2.5-.5 5.5-2.5 9.8-6.6l6.2-6h9.2c5 0 9.5.4 9.8 1 .3.5 1.4 1 2.3 1 1.1 0 .6-.6-1.2-1.5-2.7-1.4-17.4-2-21.7-.8zM90 237.5c0 1.3 2.9 5.6 5 7.3 2.1 1.7 7.9 4.2 9.8 4.2 2.4 0 .1-1.8-2.8-2.2-1.4-.2-2.4-.9-2.3-1.5.2-.7-.4-1-1.2-.6-1.6.5-5.3-2.6-7.3-6.2-.6-1.1-1.2-1.5-1.2-1zm8 3.5c0 .5.4 1 .9 1 .6 0 1.3-.5 1.6-1 .3-.6-.1-1-.9-1-.9 0-1.6.4-1.6 1zm54-.1c0 .5.5 1.3 1 1.6.6.3 1 .2 1-.4 0-.5-.4-1.3-1-1.6-.5-.3-1-.2-1 .4zm1.8 68.8c.7.3 1.6.2 1.9-.1.4-.3-.2-.6-1.3-.5-1.1 0-1.4.3-.6.6zm-6 2c-1.6.8-2.8 1.9-2.8 2.4 0 1.2 3.2-.4 5-2.5 1.5-1.9 1.4-1.9-2.2.1zm-5.9 6c-.9 1.5-2 4.2-2.4 6-1.1 5.4 1.2 16 3.1 14 .4-.3.1-1.3-.5-2.1-1.6-1.9-1.2-12.2.7-15.8 1.9-3.8 1.1-5.6-.9-2.1zM150 337c0 .5.5 1 1 1 .6 0 1-.5 1-1 0-.6-.4-1-1-1-.5 0-1 .4-1 1zm-5.1 4.4c2.6 2.8 3.1 3.1 3.1 1.7 0-.5-1.2-1.7-2.7-2.6l-2.8-1.8 2.4 2.7z"/><path fill="#F09" d="M178.5 108c-.3.5.3 1.3 1.2 1.9 1.6.9 1.5 1.2-1.1 3.4-2.9 2.3-2.9 2.4-.8 2.9 1.8.5 2.2 1.3 2.2 5 0 2.3-.5 6.1-1 8.3-.6 2.5-.6 4.1 0 4.3 1.6.6 1.1 7.1-.7 9.9-1 1.5-1.2 2.4-.5 2 .6-.5 1.2-.4 1.2.2 0 .5.9.8 2 .6 1.3-.3 2.4.5 3.4 2.6 1.4 2.9.9 3.8-1 1.9-1.5-1.5-1.1 1.8.4 4.7 1.9 3.4 1.5 10.8-.8 14.8-1.7 3.1-1.8 3.6-.5 4.1 1.7.7 2.1 3.4.5 3.4-.5 0-1-.7-1-1.5 0-.9-.6-1.2-1.5-.9-1 .4-1.3 1.3-.9 2.7.5 1.6.3 1.9-1 1.4-2.6-1-2 2.6.9 5.3 2.5 2.3 3.5 7 1.5 7-.5 0-1 .9-1 2s-.4 2-1 2c-.5 0-1 1.8-1 4 0 3.6.3 4 2.4 4 2 0 2.5.6 3 3.7.4 2.1.5 5.8.2 8.3-.2 2.5-.7 8-1.1 12.2-.4 4.3-1.1 7.8-1.6 7.8s-.9.9-.9 2 .4 2 .9 2c1.8 0 2.2 7.1.6 12.6-.9 3-1.3 6.4-1 7.5.5 1.5.2 1.9-1.5 1.9-2.3 0-2.2-1.3-1.9 20.5.2 14.4.6 21.5 1.2 22.1.3.3 2-1 3.7-2.9 3.7-4.3 7.8-5.8 14.5-5.3 2.8.2 5.6.1 6.3-.2 1-.3 1.2-3.6 1.1-13.3-.1-8.3.3-13.4 1-14.3.9-1 .7-1.7-.6-2.7-1.3-1.1-1.7-1.1-2-.2-.3.7-1.1 1.3-1.9 1.3-.9 0-1.2-.5-.9-1 .3-.6.3-2 0-3.1-.6-1.7-.9-1.9-1.6-.8-.7 1.1-1.3.9-3.1-1-1.6-1.6-1.9-2.5-1.1-2.8.9-.3.6-1.1-.7-2.6-1.1-1.1-2.5-3.6-3.2-5.4-.7-1.8-1.6-3.3-2-3.3-.4 0-.8-1.1-.8-2.4 0-1.4-.4-2.8-1-3.1-.5-.3-1-.1-1 .4 0 .6-.5 1.1-1 1.1-.7 0-.7-.6-.2-1.8.5-.9 1-5.8 1-10.8 0-8.7 1.3-15.4 3.4-18.1.6-.7.7-2.1.4-3-.4-1-.4-1.4 0-1 .5.4 1.3-.1 1.8-1.1 1.7-3 6.4-8.2 7.4-8.2.5 0 1.5-1.1 2.2-2.5.8-1.4 2.4-2.8 3.8-3.2 1.7-.4 2-.9 1.3-1.6-1.3-1.3-1.4-14.9-.1-23.6 1.1-7.8 0-9.5-5.7-8.6-2.1.3-3.2.2-2.5-.1.9-.4.3-1.5-1.8-3.7-1.7-1.7-3.4-4.3-3.7-5.6-.3-1.4-1.5-3.4-2.5-4.5-2.5-2.7-2.9-12.3-.6-13.7.6-.4.8-1.4.5-2.2-.3-.9.1-1.8.9-2.1 2.1-.8 1.9-7.6-.2-7.6-1.1 0-1.4-.5-1-1.7.4-.9.2-1.9-.3-2.2-.5-.3-1.1-1.5-1.3-2.6-.1-1.1-.8-2.6-1.5-3.2-1.7-1.9-6.1-3.4-6.8-2.3zm7 142.9c.3.5.1 1.2-.5 1.6-.5.3-1-.1-1-.9 0-1.8.6-2.1 1.5-.7z"/><path fill="#C09" d="M186.7 114c.3 1.1 1 2 1.5 2s.6.9.3 2c-.5 1.5-.2 2 1 2 1.7 0 1.7-.3-.7-5.2-1.5-3.2-2.9-3.7-2.1-.8zm2.6 13.8c-.8.5-.9 1.3-.3 2.2.7 1.2 1 1.2 1.6-.3.8-2.1.3-2.9-1.3-1.9zm-2.5 6.6c-.3 1.4-.2 4.2.2 6.3.9 4.4 1.1 3.7 1.2-3 0-5.4-.7-7.1-1.4-3.3zm-4.5 15.2c.1 2 .3 3.2.5 2.6.2-.6 1-.8 1.7-.5 1.2.4 1.2-.1-.1-2.6-.9-1.7-1.7-3.1-1.9-3.1-.2 0-.3 1.6-.2 3.6zm8.8 0c0 1.1.3 1.4.6.6.3-.7.2-1.6-.1-1.9-.3-.4-.6.2-.5 1.3zm2.5 4.6c4 4.6 5.1 5.4 6.3 5 .7-.2-.3-1.4-2.3-2.8-2-1.4-3.6-2.9-3.6-3.4 0-.6-.5-1-1.2-1-.6 0-.3 1 .8 2.2zm-9.3 8.3c0 3.3.2 4.5.4 2.7.2-1.8.2-4.5 0-6s-.4 0-.4 3.3zM204 160c0 1.3 3 1.3 5 0 1.1-.7.7-1-1.7-1-1.8 0-3.3.4-3.3 1zm-24 15.1c0 .5.5.7 1 .4.6-.3 1 .1 1 .9 0 .9.5 1.6 1 1.6 1.6 0 1.1-2.7-.6-3.4-2.1-.8-2.4-.8-2.4.5zm-3 2.9c0 .5.5 1 1 1 .6 0 1-.5 1-1 0-.6-.4-1-1-1-.5 0-1 .4-1 1zm36.5 11c-.3.5-.2 1 .4 1 .5 0 1.3-.5 1.6-1 .3-.6.2-1-.4-1-.5 0-1.3.4-1.6 1zm-7.1 2.9c-2.9 1.4-5.7 3.4-6.4 4.5-1.3 2-1.2 2 1.1.3 1.3-.9 4.3-2.7 6.7-3.9 2.3-1.2 4.2-2.6 4.2-3 0-.4-.1-.7-.2-.6-.2 0-2.6 1.3-5.4 2.7zm-12.7 10.8c-.4.3-.7 1.1-.7 1.7 0 .6.5.5 1.2-.2.6-.6.9-1.4.7-1.7-.3-.3-.9-.2-1.2.2zm-3.1 4.1c-.4 1.2-1.2 2-1.7 1.7-.5-.3-.6.1-.3 1 .6 1.4.8 1.3 2.1-.5.8-1.1 1.3-2.6 1-3.3-.2-.6-.7-.2-1.1 1.1zm-2.9 5.9c-.4.3-.7 1.1-.7 1.7 0 .6.5.5 1.2-.2.6-.6.9-1.4.7-1.7-.3-.3-.9-.2-1.2.2zm-3 8.5c-.3 1.2-.2 2.8.2 3.6.5.9.8.1.9-2.2.2-4.1-.3-4.6-1.1-1.4zm22.5 8.8c0 1.4.2 1.9.5 1.2.2-.6.2-1.8 0-2.5-.3-.6-.5-.1-.5 1.3zm-22 1c0 1.4.2 1.9.5 1.2.2-.6.2-1.8 0-2.5-.3-.6-.5-.1-.5 1.3zm1.6 12.7c.3 1.5.8 3 1.1 3.3.3.3 1.7 2.6 3 5.2 1.3 2.7 2.8 4.8 3.2 4.8 1.3 0 1.1-1.8-.4-2.7-.7-.4-2.3-3.3-3.7-6.3-3-6.8-3.9-8-3.2-4.3zm-2.8 7.9c0 .8.5 1.2 1 .9.6-.4.8-1.1.5-1.6-.9-1.4-1.5-1.1-1.5.7zm10 6.4c-1.3.8-1.2 1.3.8 3.2 1.8 1.9 2.4 2 3.1.9.7-1.1 1-.9 1.6.8.3 1.1.3 2.5 0 3.1-.3.5 0 1 .9 1 .8 0 1.6-.6 1.9-1.3.3-.9.8-.9 2.1.3 1 .8 2.8 1.5 3.9 1.7 1.6.2 1.1-.3-1.3-1.6-1.9-1.1-4.5-2.9-5.7-4-1.2-1.2-2.5-2.1-2.9-2.1-.4 0-1.2-.7-1.8-1.5-.8-1-1.6-1.2-2.6-.5zm18.6 11.9c-.9 1.4.5 1.8 3.9 1 1.7-.3 2.2-.7 1.3-.8-.9 0-2.3-.4-3.1-.7-.8-.3-1.8-.1-2.1.5zm-36.5 20.7c0 1.1.3 1.4.6.6.3-.7.2-1.6-.1-1.9-.3-.4-.6.2-.5 1.3zm13.9 6.3c0 .6 1 .8 2.1.6 3.3-.6 3.6-1.5.6-1.5-1.5 0-2.7.4-2.7.9zm10 .3c0 .5 3.5.7 7.8.7 7.8-.2 6.9-.6-2.6-1.1-2.8-.2-5.2 0-5.2.4zm-16 2.3c-1.1 1.3-1 1.4.4.9.9-.3 1.6-1 1.6-1.5 0-1.3-.6-1.1-2 .6zm35.3-.8c.9.2 2.3.2 3 0 .6-.3-.1-.5-1.8-.5-1.6 0-2.2.2-1.2.5zm-38.3 4.4c0 .5.5.7 1 .4.6-.3 1-.8 1-1.1 0-.2-.4-.4-1-.4-.5 0-1 .5-1 1.1z"/><path fill="#CCF" d="M366.2 230c0 1.4.2 1.9.5 1.2.2-.6.2-1.8 0-2.5-.3-.6-.5-.1-.5 1.3z"/><path fill="#C9F" d="M345.3 249.7c.9.2 2.3.2 3 0 .6-.3-.1-.5-1.8-.5-1.6 0-2.2.2-1.2.5zm-80.2 71.9c0 1.1.3 1.4.6.6.3-.7.2-1.6-.1-1.9-.3-.4-.6.2-.5 1.3z"/><path fill="#30C" d="M290.3 114c-3.2 1.3-2.8 2.1.7 1.4 2.2-.5 3.1-.2 3.6 1 .6 1.5.7 1.5 1.8 0 .9-1.2 2.3-1.5 4.9-1.2 2 .2 3.4.1 2.9-.3-1.2-1.2-11.6-1.9-13.9-.9zm16.6 3.4c.9 1.1.9 1.5-.1 1.8-.7.3.3 1 2.2 1.6l3.4 1.2-2.9-3c-2.9-3-4.7-4.2-2.6-1.6zm5.1 6.5c0 .5.5 1.3 1 1.6.6.3 1 .2 1-.4 0-.5-.4-1.3-1-1.6-.5-.3-1-.2-1 .4zm1 14.1c0 1.1-.4 2-.9 2s-1.1 1-1.4 2.2c-.6 2.2-.6 2.2 1.3-.2 1.8-2.3 2.7-6 1.5-6-.3 0-.5.9-.5 2zm-6.4 8.5c-1.1.8-1.7 1.7-1.4 2 .2.3 1.3-.4 2.3-1.5 2.1-2.3 1.8-2.5-.9-.5zm-11.2 3.7c1.1.6 3.1.6 5.4 0 3.6-.9 3.6-.9-1.7-.9-4-.1-5 .2-3.7.9zm-3.6 1.5c.7.3 1.6.2 1.9-.1.4-.3-.2-.6-1.3-.5-1.1 0-1.4.3-.6.6zm-.8 48.5c0 .9.7 2.2 1.7 2.9 1.5 1.3 1.5 1.2.3-1.1-1.7-3.4-2-3.6-2-1.8zm1.7 5.5c-.2.5 0 2.1.4 3.8l.7 3 .2-3 .2-3 .9 3.2c.5 1.8 1.4 3.3 1.9 3.3 1.5 0 1.2-1.8-.7-5.1-1.7-2.9-2.8-3.6-3.6-2.2zm4.7 9.5c-.4.7-.4 1 .1.6.4-.4 1.4 0 2.1 1 1.2 1.5 1.2 1.5.7-.6-.6-2.4-1.8-2.9-2.9-1zm-1.1 5.8c0 3.2 2.1 4.1 3.1 1.4.4-.9.5-1.7.4-1.8-.2-.1-1-.7-1.9-1.4-1.3-1-1.6-.7-1.6 1.8zm4.9-1c.2.8 1.4 1.9 2.6 2.5 1.2.5 2.2 1.3 2.2 1.7 0 .5 1.5.8 3.3.8l3.2-.1-3.8-1.3c-2.1-.8-4.8-2.2-5.9-3.3-1.6-1.4-2-1.4-1.6-.3zm23.6 3.7c.7.3 1.6.2 1.9-.1.4-.3-.2-.6-1.3-.5-1.1 0-1.4.3-.6.6zm-19.3 12.4c-.4.6-1.3.8-2.1.5-.8-.3-1.1 0-.7 1 .3.7.1 1.4-.5 1.4-1.8 0-8.6 10-7.5 11.1.7.7 1.4.1 2-1.8 1.7-4.6 8.4-11.4 12.3-12.3l3.5-.8-3.2-.1c-1.7-.1-3.5.4-3.8 1zm-12.8 17c-.4 1.6-.3 1.8.9.8.7-.6 1.1-1.5.8-2-.8-1.3-1.1-1.1-1.7 1.2zm-6 65.9c1.3 1.3 5.6 2.3 4.9 1.2-.3-.5-1.7-1.2-3.2-1.5-1.4-.2-2.2-.1-1.7.3zm6.3 3.8c0 .5.7 1.2 1.5 1.6.8.3 1.5 1.7 1.5 3 0 1.8.4 2.4 1.4 2 1.2-.5 1.2-1-.3-3.7-1.7-3-4.1-4.8-4.1-2.9zm5.4 9.4c.3 1.3.6 3.6.6 5.1 0 1.6.4 2.6.9 2.2.5-.3.8-1.8.6-3.3-.2-1.5-.4-3.5-.4-4.5-.1-.9-.6-1.7-1.2-1.7-.7 0-.9.9-.5 2.2zm-.8 10.3c-.3.8-1.2 1.5-2.1 1.5-.8 0-1.5.5-1.5 1.1 0 .6.7.9 1.5.5.8-.3 1.5-.1 1.5.5 0 .5-1 1.4-2.2 1.9-1.3.5-1.9.9-1.4.9.4.1-.2 1-1.5 2.2-1.9 1.6-2 1.8-.4 1 3.7-1.7 9.2-9.5 7.6-10.5-.5-.3-1.1.1-1.5.9z"/><path fill="#309" d="M307.9 146.7c-1.3 1.6-1.2 1.7.4.4 1.6-1.3 2.1-2.1 1.3-2.1-.2 0-1 .8-1.7 1.7zm-10.4 99.4c-.4.6-.5 1.2-.2 1.5.2.3.7-.2 1-1.1.7-1.7.1-2-.8-.4z"/><path fill="#60C" d="M284.5 117c-6.8 5.4-8.9 12.9-6.5 22.5.6 2.4.8 1.6 1.1-4 .1-3.9.2-8 .1-9.3 0-1.2.3-2.2.7-2.2.5 0 1.1-.9 1.4-2 .3-1.3 1.4-2 2.9-2 1.8 0 2-.2.8-1-.8-.5-1-1-.4-1 .5 0 1.5.5 2.2 1.2.9.9 1.5.9 2.4 0 .7-.7 2.2-1.2 3.5-1.2 1.3 0 2.3-.5 2.3-1.1 0-.7-1.5-1-3.9-.7-3.1.3-3.7.1-2.9-.9 1.7-2.1.3-1.5-3.7 1.7zm-6.4 28.6c0 1.1.3 1.4.6.6.3-.7.2-1.6-.1-1.9-.3-.4-.6.2-.5 1.3zm-2.5 5.2c-.8 1.6-2.2 3.4-3 4.1-.9.8-1.6 1.8-1.6 2.4 0 .7 1.4-.4 3.2-2.3 1.9-2.2 3.3-3 3.6-2.2.6 1.8 1.9 1.5 2.5-.7.5-1.9-.9-4.1-2.5-4.1-.4 0-1.4 1.3-2.2 2.8zm12.4 1.7c-.7.8-1.9 1.5-2.6 1.5-.8 0-1.1.6-.8 1.5.5 1.2 1.1 1.1 3.4-.8 1.6-1.2 2.9-2.5 2.9-3 .1-1.2-1.6-.8-2.9.8zm-14.4 7c.4.8.8 1.5 1 1.5.2 0 .4-.7.4-1.5s-.4-1.5-1-1.5c-.5 0-.7.7-.4 1.5zm7.4.5c-1.7 1.3-2 2-1 2 .8.1.2.8-1.3 1.6-1.9 1-2.7 2.1-2.3 3.1.3.8.6 2.6.6 4 0 4 1 2.1 1.2-2.1.1-2 .3-3.4.6-3.1.3.3 1.6-1.1 3-3.1 2.8-4.2 2.6-5-.8-2.4zm-13.3.4c-1 .8-1.4 1.7-.9 2 .5.3 1.7-.3 2.7-1.4 2.1-2.3.9-2.6-1.8-.6zm4.3 15.1c0 1.4.5 2.5 1 2.5.6 0 1-1.1 1-2.5s-.4-2.5-1-2.5c-.5 0-1 1.1-1 2.5zm5.4-.4c-.4.7-.3 1.4.4 1.7.7.2 1.2 1 1.2 1.7s.7 1.5 1.5 1.9c2 .7 1.9-.3-.4-3.7-1.4-2.1-2.1-2.5-2.7-1.6zm5.3 8.9c.4 1.4 0 2-1.1 2-1.8 0-2.1 1.5-.5 2.6.6.3 1.5 0 2-.7.8-1.2 1.1-1.2 1.9.1 1.5 2.3 1.2.7-.6-2.8-1.8-3.7-2.5-4.1-1.7-1.2zm1.3 7c0 .5.5 1 1 1 .6 0 1-.5 1-1 0-.6-.4-1-1-1-.5 0-1 .4-1 1zm3.1 1.5c-.1 1.2.3 2.5.8 3 .5.6 1.1 1.9 1.3 3 .2 1.1.6 1.5 1 1 .4-.6-.2-2.9-1.2-5-1.3-2.8-1.9-3.4-1.9-2zm.9 10.5c0 .5.5 1 1 1 .6 0 1-.5 1-1 0-.6-.4-1-1-1-.5 0-1 .4-1 1zm-19.6 17.3c.3 1 .6 4.2.7 7l.1 5.2 1.3-3.5c1.7-4.3 1.8-5.3.5-4.5-.5.3-1-.2-1-1.2s-.5-2.5-1.1-3.3c-.9-1.2-1-1.2-.5.3zm22.8 34.7c0 1.4.2 1.9.5 1.2.2-.6.2-1.8 0-2.5-.3-.6-.5-.1-.5 1.3zm-2.6 2.5c.4.8.8 1.5 1 1.5.2 0 .4-.7.4-1.5s-.4-1.5-1-1.5c-.5 0-.7.7-.4 1.5zm-1.3 4.5c-.3 1.1-1.1 2-1.9 2-.7 0-1.6 1.2-2 2.7-.4 1.6-1.3 3.4-2.2 4-1.7 1.4-1 2.9.7 1.8 1.8-1 7.6-12.5 6.5-12.5-.3 0-.8.9-1.1 2zm-11.6 10.7c-.3 1.6-.2 3 .2 3.3 1.5 1.1-1.1 9-3.1 9-.4 0-.8.8-.8 1.7 0 1.5.2 1.5 1.3.3 2.4-2.6 7.8-13 6.7-13-.5 0-1 .4-1 1 0 .5-.5 1-1.1 1-.7 0-1-1.2-.7-3 .6-3.8-.8-4-1.5-.3zm-6 18c-.4.3-.7 1.6-.6 2.7 0 1.9.1 1.9 1-.3 1-2.4.8-3.6-.4-2.4zm2.6 18.2c-.1 1.1 1.5 3.4 3.6 5.4 2 1.8 3.5 3.9 3.3 4.5-.2.7.6 1.2 1.7 1.2 3 0 3.4.1 5.4 1.1.9.6 2.2.7 2.8.3.9-.5-1.2-1.8-9.7-5.6-1.2-.6-3.1-2.8-4.3-4.9-1.2-2.1-2.3-3.9-2.5-3.9-.1 0-.2.9-.3 1.9zm-6.1 11.6c0 1.6.2 2.2.5 1.2.2-.9.2-2.3 0-3-.3-.6-.5.1-.5 1.8zM287 351c0 .5.7 1 1.6 1 .8 0 1.2-.5.9-1-.3-.6-1-1-1.6-1-.5 0-.9.4-.9 1zm-17 .4c0 .2.7.7 1.6 1 .8.3 1.2.2.9-.4-.6-1-2.5-1.4-2.5-.6zm4.5 1.6c-1.1 1.7 7.1 3.2 11.5 2 5.9-1.6 4.9-2.3-2.1-1.5-4.4.5-6 .4-5.5-.4.4-.7-.1-1.1-1.3-1.1-1.1 0-2.2.4-2.6 1z"/><path fill="#30F" d="M295.1 118.5c-1.1 1.9-2 4.7-1.9 6.2 0 1.6-.3 5.6-.7 8.9-1.1 8.6.1 17.4 2.3 17.4 1.4 0 1.4-.2.3-.9-.9-.6.4-.9 3.7-.9 4 0 5.5-.5 8.1-2.8 4.5-4 5.8-7.1 5.5-14.3-.2-6.7-1.7-10.7-4.4-11.6-.9-.3-2.2-1.7-2.8-3-.9-2-1.9-2.5-4.6-2.5-2.8 0-3.7.6-5.5 3.5zm-4.7 85.9c-.4 1.6-.1 3.3.7 4.3 1.1 1.2 1.4 6.3 1.4 22 0 16 .3 20.3 1.3 20.3.7 0 1-.5.7-1-.7-1.2 6.1-11 7.7-11 .6 0 .8-.7.5-1.4-.4-1-.1-1.3.7-1 .8.3 1.7.1 2.1-.5.3-.6 2.2-1.1 4.1-1.1 3.1 0 3.4-.2 3.4-3.1 0-4.2-1.7-6.9-4.3-6.9-3.2 0-6.4-2.5-8.3-6.5-.9-1.9-2-3.2-2.5-2.9-.5.3-.6-.2-.3-1 .3-.9.2-1.6-.4-1.6-.6 0-1.5-1.2-2-2.8l-1-2.7-.2 2.5c-.2 2.4-.2 2.4-1.1-.4-.5-1.8-.5-3.4.1-4.2.7-.8.5-1.5-.4-2.4-1.3-1-1.6-.7-2.2 1.4zm9.4 16.2c.1.1 0 .9-.4 1.8-1 2.7-3.1 1.8-3.1-1.4 0-2.5.3-2.8 1.6-1.8.9.7 1.7 1.3 1.9 1.4zM292 327.7c0 2.2-.5 4.4-1.1 5-.8.8-.8 2.2 0 4.9.6 2.2 1.1 5.6 1.1 7.6 0 3.4.2 3.7 2.2 2.9 1.2-.4 2.4-1.3 2.6-1.9.2-.7-.3-1-1.2-.6-.9.3-1.6.1-1.6-.5s.7-1.1 1.5-1.1c2.3 0 3.6-3.7 3.3-9.5-.2-3.8-.7-5.4-1.5-5.1-.7.3-1.3-.6-1.5-2.2-.2-1.6-1-2.8-2-3-1.5-.3-1.8.4-1.8 3.5zm5 14.3c0 .5-.5 1-1.1 1-.5 0-.7-.5-.4-1 .3-.6.8-1 1.1-1 .2 0 .4.4.4 1z"/><path fill="#99F" d="M313.3 223.7c1.5.2 3.7.2 5 0 1.2-.2 0-.4-2.8-.4-2.7 0-3.8.2-2.2.4z"/><path fill="#F69" d="m120.4 244.2-1.9 2.3 2.3-1.9c2.1-1.8 2.7-2.6 1.9-2.6-.2 0-1.2 1-2.3 2.2zm-15.6 5.5c.7.3 1.6.2 1.9-.1.4-.3-.2-.6-1.3-.5-1.1 0-1.4.3-.6.6zm33.4 78.3c0 1.4.2 1.9.5 1.2.2-.6.2-1.8 0-2.5-.3-.6-.5-.1-.5 1.3z"/><path fill="#C6F" d="M268.9 158.7c-1.3 1.6-1.2 1.7.4.4 1.6-1.3 2.1-2.1 1.3-2.1-.2 0-1 .8-1.7 1.7z"/><g fill="#60F" stroke-width="0"><path d="M290.8 115.7c.7.3 1.6.2 1.9-.1.4-.3-.2-.6-1.3-.5-1.1 0-1.4.3-.6.6zM285 119c1.2.8 1 1-.8 1-1.5 0-2.6.7-2.9 2-.3 1.1-.8 2-1.2 2-.4 0-.8 5-1 11-.1 6.1-.4 11.9-.6 13-.2 1.1.1 2.3.7 2.6.7.5.8.2.3-.6s-.4-1.1.3-.7c1.2.8.4 4.7-.9 4.7-.5 0-.9-.5-.9-1 0-1.9-1.8-1-2.3 1.1-.3 1.2-1 1.8-1.5 1.5-.6-.3-1.2.1-1.6.9-.3.9 0 1.5.9 1.5.8 0 1.5.7 1.5 1.5s-.4 1.5-.8 1.5-.8.8-.8 1.7c0 1-.3 3.7-.7 6-.5 2.7-.3 4.3.3 4.3.5 0 1 1.1 1 2.5s-.5 2.5-1.1 2.5c-1.1 0-1 3 .7 14.5.2 1.6.7 20.8 1.1 42.5.4 21.7.9 38.5 1.1 37.2.2-1.2.7-2.2 1.1-2.2.4 0 .6 1.4.3 3-.2 1.6-.8 3-1.2 3-.4 0-1.1 1.6-1.4 3.5-.4 1.9-1.1 3.5-1.6 3.5-.6 0-1 .6-1 1.2.1 2 4-3.2 4-5.2 0-.9 1.1-2.5 2.4-3.5 1.3-1 2.2-2.4 1.9-3-.2-.7.2-1.5 1-1.8.8-.3 1.7-1.9 2-3.6.4-1.7 1.2-3.1 2-3.1 1.5 0 3.9-5.8 3-7.3-.4-.6 0-.8 1-.4 1.3.5 1.7.1 1.7-1.4 0-1.1.4-1.8.9-1.4 1.6.9.9-42.9-.7-44.8-.9-1-1.1-2.8-.6-5.1.4-2.4.2-3.6-.5-3.6-.6 0-1.1-.9-1.1-1.9 0-1.1-.4-2.3-1-2.6-.5-.3-1-1.5-1-2.5 0-1.3-.5-1.7-1.5-1.4-.8.4-1.5.2-1.5-.4 0-.6.4-1.2 1-1.4.6-.2.6-.8 0-1.8-.8-1.3-1.1-1.3-1.9-.1-.5.7-1.4 1-2 .7-1.6-1-1.4-2.6.4-2.6 2.1 0 1.9-2.6-.5-5-1.1-1.1-2-2.5-2-3 0-.6-.4-1-1-1-.5 0-.9-.8-.8-1.8.1-.9 0-3.2 0-5.1-.2-2.8-.4-3.2-1.7-2.1-1.3 1.1-1.5.8-1.5-1.5 0-1.8.4-2.5 1.3-2.2.7.3 2.4-.1 3.8-.9s1.8-1.3.9-1.4c-.9 0-.2-1.1 1.8-2.6 1.9-1.5 3.1-3.2 2.8-4-.3-.8.1-1.4.8-1.4.7 0 1.9-.7 2.6-1.5.7-.8 2-1.5 3-1.5 1.5 0 1.7-1.2 1.7-9.8-.1-13.7.4-20.1 1.4-20.8.5-.3.9-.9.9-1.5 0-1.3-4.4-1.1-5.8.3-.9.9-1.5.9-2.4 0-.7-.7-1.7-1.2-2.2-1.2-.6 0-.4.5.4 1zm5 84c0 .5-.4 1-1 1-.5 0-1-.5-1-1 0-.6.5-1 1-1 .6 0 1 .4 1 1z"/><path d="M292.6 206.8c-.3.5.1.9.9.9s1.2-.4.9-.9c-.3-.4-.7-.8-.9-.8-.2 0-.6.4-.9.8zm-19.1 107.7c.5 1.7 1 9.1 1 16.5.3 21.4.2 21 2.6 21 1.2 0 1.8.4 1.3 1.1-1 1.6 10.8.1 12.1-1.5.6-.7 1.7-1.5 2.5-1.9.9-.3 1-.6.3-.6-.8-.1-1.3-1.6-1.3-3.9 0-2-.5-5.4-1.1-7.5-.7-2.5-.7-4.3-.1-5 .6-.7 1.2-3.5 1.3-6.2.4-4.9.4-5-2.6-5.2-1.6-.1-3.9-.4-5-.6-1.1-.3-2.8-.6-3.9-.6-1-.1-1.6-.7-1.4-1.4.3-.6-1.1-2.5-3-4.2l-3.5-3 .8 3zm16 36.5c.3.5-.1 1-.9 1-.9 0-1.6-.5-1.6-1 0-.6.4-1 .9-1 .6 0 1.3.4 1.6 1zm6-9c-.3.5-.1 1 .4 1 .6 0 1.1-.5 1.1-1 0-.6-.2-1-.4-1-.3 0-.8.4-1.1 1z"/></g><path fill="#C6C" d="M236.8 300.7c.7.3 1.6.2 1.9-.1.4-.3-.2-.6-1.3-.5-1.1 0-1.4.3-.6.6z"/><path fill="#00C" d="M305.6 117.5c.4.8 1.1 1.5 1.6 1.5.6 0 .5-.6-.2-1.5-.7-.8-1.4-1.5-1.6-1.5-.2 0-.1.7.2 1.5zm6.8 9.5c.3 1.4.6 4 .6 5.7 0 1.8.5 3.3 1.1 3.3 1.5 0 .6-8.8-1.1-10.3-1-1-1.1-.7-.6 1.3zm27.1 85.5c-2.5 1.1-2.7 1.5-1.3 2 1.1.4 2.4 0 3.3-.9 2.7-2.6 11.9-1.9 10.9.9-.4.8.8 1.6 3.2 2.2 4.5 1 7.4 4.6 8.1 10.2.7 5 2.1 6.4 1.8 1.7-.5-6.1-5.3-13.6-8.7-13.6-1.1 0-1.7-.4-1.4-.9 1.7-2.7-10.5-4-15.9-1.6zm-7.2 4.8c-2.3 2.3-3.1 6.7-1.3 6.7.6 0 1-.6.9-1.3-.3-2.6.2-3.7 1.6-3.7.8 0 1.5-.6 1.5-1.4 0-.8.6-1.7 1.3-1.9.8-.4.7-.5-.3-.6-.8 0-2.5 1-3.7 2.2zm-4.6 5.1c-.5 1.1-2.6 1.6-8.4 1.9l-7.8.3 7.6.2c5.8.2 8-.2 8.9-1.3.7-.9 1.1-1.8.8-2.1-.3-.3-.8.2-1.1 1zm6.3 11.1c0 .8.5 1.5 1 1.5.6 0 1-.7 1-1.5s-.4-1.5-1-1.5c-.5 0-1 .7-1 1.5zm-15 1.5-7.5.6 7.2.2c6.7.2 7.4.4 10.7 3.7 2 1.9 3.6 3.1 3.6 2.6 0-.4-.3-1.1-.7-1.5-.4-.4-.8-1.5-.8-2.4 0-1-.7-1.6-1.7-1.6-1 .1-1.8-.4-1.8-1.2 0-.8-.3-1.3-.7-1.2-.5.1-4.2.4-8.3.8zm43.5 2.3c-2.8 4.6-3 5.4-1.1 3.7 1.7-1.3 4-5.9 3.4-6.6-.2-.1-1.2 1.2-2.3 2.9zM338 241c0 .5.4 1 .9 1 .6 0 1.3-.5 1.6-1 .3-.6-.1-1-.9-1-.9 0-1.6.4-1.6 1zm-3.3 3.5c.3.8.9 1.2 1.4.9 1.2-.7 1.1-1.1-.5-1.7-1-.4-1.3-.1-.9.8zm22.7-.5c-1.2.5-2.5 1.3-2.9 1.9-.9 1.5-13.8 1.4-15.3-.1-.9-.9-1.2-.9-1.2 0 0 1.6 7.7 3.5 11.7 2.7 3.1-.5 10.3-4.1 10.3-5.1 0-.5 0-.5-2.6.6z"/><path fill="#F03" d="M103 212.7c-3.8.8-11.5 6.5-10.3 7.7.4.3.1.6-.5.6-.7 0-1.2 1.2-1.2 2.6 0 1.4-.4 2.3-1 1.9-.6-.4-1 1.1-1 3.9 0 3.2.5 4.8 1.8 5.5 1 .6 1.2 1.1.4 1.1-1 0-1 .5-.1 2.2 2 3.8 5.7 7.1 7.4 6.5.8-.4 1.4-.1 1.2.6-.1.6.9 1.3 2.3 1.5 1.4.2 2.8.7 3.3 1.1 1.5 1.4 10.7-1.2 11.3-3.2.3-1 1.8-2.3 3.4-2.8 1.5-.6 3.3-2.1 4-3.4.7-1.3 2.2-2.6 3.4-2.9 3.6-1 19.4-.7 20.1.4.4.6 1 .8 1.5.5.5-.3 1.3.3 1.9 1.2.8 1.4 1 .8 1.1-3 0-2.7.5-5.7 1-6.8.8-1.4.7-2.6-.4-4.6-1.1-2.1-1.5-2.3-1.6-1 0 1-.4 1.6-.9 1.2-.5-.3-1.2-.1-1.6.5-.3.6-4.9 1-10.6 1h-10.1l-4.9-4.9c-3.4-3.4-5.5-4.8-6.6-4.4-1 .4-1.4.2-1-.4 1.4-2.2-6.1-3.7-12.3-2.6zm-2.5 28.3c-.3.5-1 1-1.6 1-.5 0-.9-.5-.9-1 0-.6.7-1 1.6-1 .8 0 1.2.4.9 1zm47.3 72.5c-2.1 1.4-3.8 3-3.8 3.5 0 2-.2 2.5-1.4 4-2.1 2.4-2.1 12.8 0 15.1.9 1 1.3 1.9.8 1.9-1.1 0 5.1 5.7 6.8 6.2 1.4.5 3.8-3.4 3.8-6.3 0-1 .5-2.1 1-2.4 1.7-1 1.1-4.4-1-5.5-1.7-.9-2-2.3-2.2-10l-.3-9-3.7 2.5zM152 337c0 .5-.4 1-1 1-.5 0-1-.5-1-1 0-.6.5-1 1-1 .6 0 1 .4 1 1z"/><path fill="#00F" d="M312.2 132c0 1.4.2 1.9.5 1.2.2-.6.2-1.8 0-2.5-.3-.6-.5-.1-.5 1.3zm29.3 81.6c-.8.9-2.1 1.4-2.8 1.1-1.4-.5-3.9 1.8-2.9 2.7.3.4-.4.9-1.6 1.3-1.5.3-2.2 1.3-2.2 2.9 0 1.5-.6 2.4-1.6 2.4-.9 0-1.2-.5-.8-1.3.4-.6-.2-.4-1.3.5-1.5 1.4-3.8 1.8-9.7 1.8-7.3 0-7.6.1-6.6 1.9.5 1.1 1 3.4 1 5.1v3.2l7.5-.4c4.1-.2 7.5 0 7.5.3 0 .4.9.9 2 1.2 1.1.3 2 1.4 2 2.5 0 2 2.9 5.2 4.7 5.2.6 0 1.6.7 2.3 1.5 1.5 1.8 14.5 2.1 15.5.4.4-.5 1.8-1.4 3.1-1.9 2.1-.8 2.9-2.6 2.5-5.2 0-.5.2-.7.7-.5.4.1.8-.2.9-.6.1-.4.9-1.5 1.8-2.3 1.1-1.2 1.4-2.6.9-5.2-1.6-9.6-3.5-12.5-9.2-13.7-2.2-.4-3.2-1.1-2.8-2 1-2.8-8.2-3.5-10.9-.9zm-5.5 19.9c0 .8-.4 1.5-1 1.5-.5 0-1-.7-1-1.5s.5-1.5 1-1.5c.6 0 1 .7 1 1.5zm-.5 7.5c.3.5.1 1-.4 1-.6 0-1.1-.5-1.1-1 0-.6.2-1 .4-1 .3 0 .8.4 1.1 1zm5 0c-.3.5-1 1-1.6 1-.5 0-.9-.5-.9-1 0-.6.7-1 1.6-1 .8 0 1.2.4.9 1z"/><path fill="#93C" d="M276.2 132c0 1.4.2 1.9.5 1.2.2-.6.2-1.8 0-2.5-.3-.6-.5-.1-.5 1.3zM257 200.4c0 .2.8 1 1.8 1.7 1.5 1.3 1.6 1.2.3-.4s-2.1-2.1-2.1-1.3z"/><path fill="#FCC" d="M87.2 230c0 1.4.2 1.9.5 1.2.2-.6.2-1.8 0-2.5-.3-.6-.5-.1-.5 1.3z"/><path fill="#009" d="M360.9 241.7c-1.3 1.6-1.2 1.7.4.4 1.6-1.3 2.1-2.1 1.3-2.1-.2 0-1 .8-1.7 1.7z"/><path fill="#63F" d="M344.8 210.7c.6.2 1.8.2 2.5 0 .6-.3.1-.5-1.3-.5-1.4 0-1.9.2-1.2.5z"/><path fill="#90F" d="M267 162.6c-1.7 1-4.1 1.3-7.8.9-4.1-.4-5.2-.2-4.6.7.9 1.3.8 1.3 1.9 15.5.6 7.4.5 10.6-.4 11.6-1.5 1.9-.2 5.3 3.8 9.5 4.5 5 8.8 13.1 9.5 18.4.4 2.7 1.1 4.8 1.5 4.8.4 0 .6 2.4.3 5.4-.3 3.3 0 5.6.7 6 1.3.8 1.5 4.6.3 4.6-.4 0-1.3-.5-1.9-1.1-.7-.7-1.3.2-2.1 3-.5 2.3-.6 4.1-.1 4.1s.9.7.9 1.5-.8 1.5-1.9 1.5c-1.4 0-2.1 1-2.5 3.5-.4 1.9-1.3 3.5-2 3.5s-2.4 1.3-3.9 2.8c-2.2 2.3-2.8 3.8-2.8 8-.1 2.9-.6 5.2-1 5.2-1.3 0-1.1 2.8.2 3.2.7.2 1.1 4.2 1.2 11.1 0 9.2-.2 10.9-1.7 12-1.7 1.2-1.6 1.4.8 3 1.4.9 3 1.7 3.6 1.7.6 0 .8.5.4 1.1-.5.8-.1.8 1.4 0 2.7-1.5 3.2-1.4 3.2.4 0 .8-.7 1.5-1.5 1.5-2.1 0-1.9 1 1.5 6.3 1.7 2.6 3 5.9 3 7.3 0 3.3-2 11.6-3.1 12.8-1.2 1.4-1.1 3.9.3 8.6.7 2.2 1.8 3.8 2.4 3.6.8-.3 1 .3.6 1.6-.4 1.8-.2 1.9 1.6.9 2.8-1.5 3.2-1.4 3.2.9 0 1.1-.6 2-1.2 2.1-1.1 0 1.7 1.6 3.2 1.8 1 .2 1-33.1 0-34.9-.6-1-1.1-3.4-1.2-5.3-.2-1.9-.6-3.3-1-3-.5.2-.8-.5-.8-1.6 0-1-.5-2.1-1.2-2.3-1.7-.6-1.3-11.7.6-15.3.9-1.7 1.6-3.8 1.6-4.7 0-.9.6-1.8 1.3-2 2.4-.9 1.5-81.7-1.2-102.1-.5-3.8-.3-8.1.5-12 .7-3.3 1.1-6.4.8-6.9-.7-1.2-3.5-.8-6.4.8zm2.8 3.4c-1.3 2.1-3.8 2.7-3.8 1 0-.9 2.8-2.9 4.3-3 .4 0 .2.9-.5 2zm-.1 28.2c-.3.8-.6.5-.6-.6-.1-1.1.2-1.7.5-1.3.3.3.4 1.2.1 1.9zm-3.7 95.3c0 .8-.4 1.5-1 1.5-.5 0-1-.7-1-1.5s.5-1.5 1-1.5c.6 0 1 .7 1 1.5zm0 7.5c0 .5-.7 1-1.5 1s-1.5-.5-1.5-1c0-.6.7-1 1.5-1s1.5.4 1.5 1zm5.7 24.7c-.4 1.7-.4 1.7-1.2 0-.4-.9-.4-2.5 0-3.5.8-1.6.8-1.6 1.2 0 .3 1 .3 2.6 0 3.5zm2.3-155.1c0 1.4.4 2.3 1 1.9.6-.3 1-1.5 1-2.6 0-1-.4-1.9-1-1.9-.5 0-1 1.2-1 2.6z"/><path fill="#F6F" d="M230.8 160.7c.7.3 1.6.2 1.9-.1.4-.3-.2-.6-1.3-.5-1.1 0-1.4.3-.6.6z"/><path fill="#90C" d="M270.3 159.6c0 .8.9 1.4 2 1.4 1 0 1.7-.5 1.5-1.2-.6-1.6-3.5-1.8-3.5-.2zm-26 3.1c.9.2 2.3.2 3 0 .6-.3-.1-.5-1.8-.5-1.6 0-2.2.2-1.2.5zm6 0c.9.2 2.3.2 3 0 .6-.3-.1-.5-1.8-.5-1.6 0-2.2.2-1.2.5zm9 .4c-1.3.6-.8.8 1.7.8 1.9 0 4.2-.4 5-.9 1.1-.8.7-1-1.7-.8-1.7.1-4 .5-5 .9zm8.5 2c-1 .5-1.8 1.4-1.8 1.9 0 1.7 2.5 1.1 3.8-1 1.3-2.2.7-2.5-2-.9zm1.3 28.5c0 1.1.3 1.4.6.6.3-.7.2-1.6-.1-1.9-.3-.4-.6.2-.5 1.3zm-17.1 1.9c3.7 2.8 11 10.5 11 11.7 0 .4.5.8 1 .8 2.5 0-4.8-8.8-10.7-12.8-4.3-3-5.5-2.8-1.3.3zm12 13.9c0 .2.7.7 1.6 1 .8.3 1.2.2.9-.4-.6-1-2.5-1.4-2.5-.6zm2 3.6c0 .5.5 1 1 1 .6 0 1 1.2 1.1 2.7 0 1.6.3 2.2.6 1.5.7-1.8-.5-6.2-1.7-6.2-.6 0-1 .4-1 1zm3.8 18c-.7 2.9-.5 6 .6 7.8 1.1 1.9 2.6 1.4 2.6-.9 0-1.1-.4-1.8-.9-1.4-.6.3-1.1-1.4-1.3-3.7-.2-3.5-.4-3.9-1-1.8zm-3.3 14c-.3.5-.3 1 .2 1 .4 0 .3.4-.2.8-.6.4-1.8 1.9-2.8 3.4-.9 1.6-2.4 3.9-3.3 5.2-1.5 2.5-1.5 2.5 1 1.3 1.7-.8 2.8-2.3 3.2-4.5.4-2.3 1.2-3.2 2.5-3.2 1.1 0 1.9-.7 1.9-1.5s-.5-1.5-1.1-1.5c-.5 0-.7-.5-.4-1 .3-.6.4-1 .1-1-.3 0-.8.4-1.1 1zm-14.7 18.7c-.7 1-2 1.9-2.8 2.1-3.5.8-4.3 2-1.2 1.9 2.2-.1 3.4-.8 4.2-2.5.5-1.3 1.5-2 2-1.7.6.3 1 .1 1-.4 0-1.7-1.7-1.3-3.2.6zm2.2 6.8c0 .8.5 1.5 1 1.5.6 0 1-.7 1-1.5s-.4-1.5-1-1.5c-.5 0-1 .7-1 1.5zm10 19c0 .8.5 1.5 1 1.5.6 0 1-.7 1-1.5s-.4-1.5-1-1.5c-.5 0-1 .7-1 1.5zm-1 7.5c0 .5.7 1 1.5 1s1.5-.5 1.5-1c0-.6-.7-1-1.5-1s-1.5.4-1.5 1zm5.8 2.5c-.8.8.3 5.5 1.3 5.5.5 0 .6-1.2.3-2.8-.8-3.2-.9-3.4-1.6-2.7zm-15.4 2.2c1.1.3 2.6 1.1 3.4 1.9.7.8 1.8 1.2 2.3.9.5-.4.6 0 .3.8s.2 2 1.1 2.7c1.3 1.1 1.4 1 .9-.4-.4-1.1-.1-1.6 1-1.6.9 0 1.6-.7 1.6-1.6 0-1-.6-1.3-1.7-1-1 .3-3.1-.1-4.7-.9-1.5-.8-3.6-1.4-4.5-1.4-1.2.1-1.1.3.3.6zm17.7 5.9c0 1.1.3 1.4.6.6.3-.7.2-1.6-.1-1.9-.3-.4-.6.2-.5 1.3zm-9.1 2.7c0 .4.8 2.2 1.7 4 .9 1.8 1.6 3.6 1.4 4.2-.1.5.3.5.9-.2.9-.8.6-2-1.4-4.9-1.4-2.1-2.6-3.5-2.6-3.1zm8.5 7.9c-.4 1-.4 2.6 0 3.5.8 1.7.8 1.7 1.2 0 .3-.9.3-2.5 0-3.5-.4-1.6-.4-1.6-1.2 0zm-5.1 6.5c-.3 1-1 2.6-1.5 3.6s-.7 2.2-.4 2.7c.3.5.1 1.1-.5 1.5-.5.3-1 1.4-1 2.3 0 2.5 2.4-2.4 3.7-7.6 1.1-4.1.8-6-.3-2.5zm-3.4 13.4c-.1 2.1 2.8 7.9 5.3 10.4 2.1 2.1 2.8 2.4 2.3 1.1-.5-1.6-.4-1.7.8-.7 1.2 1 1.5.9 1.3-.8-.2-2.4-.2-2.4-2.9-1-1.8 1-2 .9-1.6-.9.4-1.5.2-1.9-.8-1.5-.9.3-1.4-.2-1.4-1.4 0-1.7-2.9-6.7-3-5.2zm10.7 14.4c.3.8.9 1.2 1.4.9 1.2-.7 1.1-1.1-.5-1.7-1-.4-1.3-.1-.9.8z"/><path fill="#F0C" d="M205.4 164.7c-.5 2.1-.8 9-.8 15.3-.1 11 0 11.5 1.9 11.2 3.9-.6 7.5-2.7 7-4-.3-1 .5-1.1 3.3-.7 3 .4 3.3.3 1.5-.4-1.8-.8-2.3-1.8-2.3-5 0-2.2.5-4.3 1-4.6.6-.3 1-4 1-8.1V161h-11.9l-.7 3.7zm23.1-2.7c.3.5.8 1 1.1 1 .2 0 .4-.5.4-1 0-.6-.5-1-1.1-1-.5 0-.7.4-.4 1zm-8.3 50.6c-1.1 1.2-1 1.4.3 1.4.8 0 1.5.4 1.5 1 0 .5.5 1 1 1 1.4 0 1.2-2.6-.2-3.8-.9-.7-1.7-.6-2.6.4zm12.2.9c-.9 3.5 0 4.1 2.5 1.6 2-2 2-2.1.1-3.1-1.7-.9-2-.7-2.6 1.5zm-20.3 8.7c-.1 1-.8 1.8-1.6 1.8-1.1 0-1.5 1.2-1.5 5.2.1 4.1.3 4.9 1.1 3.5 1.2-2 3.9-2.3 3.9-.3 0 .8.8 2.7 1.7 4.3 1.4 2.6 1.9 2.8 4 1.9 2.6-1.3 3-2.6.7-2.6-1.1 0-1.4-.5-1-1.7.4-1-.4-2.7-2.2-4.7-1.6-1.7-3.4-4.5-4-6.1-.6-1.7-1.1-2.2-1.1-1.3zM239 233c-.9 1.7-.6 2.5 1.5 4.6 1.4 1.4 2.3 3 2 3.5-.4.5-.1.9.6.9s.9-.8.5-2.3c-.4-1.2-.9-3.7-1.3-5.5-.6-3.7-1.8-4.1-3.3-1.2zm-26.9 7c-1.1.6-.8 1.1.9 2 2.7 1.4 3.2 1 1.6-1.2-.8-1-1.7-1.4-2.5-.8zm11.9 2.3c0 3.5 2.1 5.5 6.5 6.3l4 .6-2.2-2.1c-1.3-1.2-2.3-3.3-2.3-4.6 0-2.1-.5-2.5-3-2.5s-3 .4-3 2.3zm-2 5.7c0 .5.7 1 1.5 1s1.5-.5 1.5-1c0-.6-.7-1-1.5-1s-1.5.4-1.5 1zm-16.5 20.4c-1.5 1.1-1.7 3-1.6 14.3.1 9.9-.1 13.2-1.1 13.6-2.3.9 8.6.5 13.8-.5 5-1 5.1-1.1 6.2-5.7.6-2.8.7-5 .1-5.6-.5-.5-.9-3.3-.9-6.2 0-5-.2-5.3-2.4-5.3-1.4 0-2.8-.5-3.1-1.1-.4-.6-1.3-.8-2.1-.5-.7.3-1.7 0-2.1-.7-1.6-2.5-5-3.7-6.8-2.3zm17.3 28.3c.7.3 1.6.2 1.9-.1.4-.3-.2-.6-1.3-.5-1.1 0-1.4.3-.6.6z"/><path fill="#909" d="M227.8 209.7c.7.3 1.6.2 1.9-.1.4-.3-.2-.6-1.3-.5-1.1 0-1.4.3-.6.6z"/><path fill="#C3C" d="M240.8 161.7c.7.3 1.6.2 1.9-.1.4-.3-.2-.6-1.3-.5-1.1 0-1.4.3-.6.6zm-.8 51.7c0 .2.8 1 1.8 1.7 1.5 1.3 1.6 1.2.3-.4s-2.1-2.1-2.1-1.3zm-28.1 3.3c-1.3 1.6-1.2 1.7.4.4.9-.7 1.7-1.5 1.7-1.7 0-.8-.8-.3-2.1 1.3zm1.1 27.7c0 .2.8 1 1.8 1.7 1.5 1.3 1.6 1.2.3-.4s-2.1-2.1-2.1-1.3zm27.9 1.3c-1.3 1.6-1.2 1.7.4.4.9-.7 1.7-1.5 1.7-1.7 0-.8-.8-.3-2.1 1.3zm14 15c-1.3 1.6-1.2 1.7.4.4.9-.7 1.7-1.5 1.7-1.7 0-.8-.8-.3-2.1 1.3z"/><g fill="#C0C" stroke-width="0"><path d="M210.3 160.7c1.5.2 3.7.2 5 0 1.2-.2 0-.4-2.8-.4-2.7 0-3.8.2-2.2.4zm7.7 7.2c0 4.4-.4 8.3-1 8.6-.5.3-1 2.4-1 4.6 0 3.2.5 4.2 2.3 5 1.7.7 1.3.8-1.8.3-3.1-.4-3.7-.3-2.8.6.8.9 4.5 1.2 11.2 1.1 8.9-.2 16.7 1 19.6 2.9 1.9 1.3 4.5 1.9 4.5 1.1 0-.4-1.9-1.4-4.2-2.1-2.4-.7-4.7-1.7-5.2-2.2-.6-.4-1.8-.8-2.8-.8-1 0-1.8-.6-1.8-1.4 0-.8-.6-1.6-1.2-1.9-1-.3-1-.9-.1-2.8 1.4-2.6 4.3-10.9 4.3-12.2 0-.4-1.3-1.3-3-1.8-1.6-.6-3-1.7-3-2.4 0-1 1.5-1.2 6.3-.8 5.1.5 6 .3 5-.8-1.6-1.7-13.3-2.6-13.3-1 0 .6-.4 1.1-1 1.1-.5 0-1-.6-1-1.3 0-1-1.6-1.4-5-1.6l-5-.1v7.9zm29-4.9c-1.2.8-1 1 .8 1 1.3 0 2-.4 1.7-1-.7-1.2-.6-1.2-2.5 0z"/><path d="M241.2 185.9c-1.1.7-1.1.9 0 1.3 1.8.7 3.9-.2 3.2-1.3-.6-1.1-1.5-1.1-3.2 0zm4.8 2.5c0 .9.5 1.6 1 1.6.6 0 1-.4 1-.9 0-.6-.4-1.3-1-1.6-.5-.3-1 .1-1 .9zM224 211c.8.5 1 1 .3 1-.6 0-.9.9-.6 2 .3 1.1 0 2-.6 2s-1.1-.5-1.1-1c0-.6-.8-1-1.7-1-1.5 0-1.6-.2-.3-1 .8-.5 1.1-1.2.7-1.6-.9-.9-7.3 4.1-10.1 7.9-4 5.4-3 21.6 1.3 20.4 1.1-.2 2.3.3 3 1.4 1.3 2.2.8 2.3-2.2.8-1.4-.8-.9.1 1.4 2.3 3.7 3.7 7.9 5.7 7.9 3.9 0-.6.7-1.1 1.5-1.1 1.8 0 2 1.6.3 2.3-.7.3 1 .6 3.8.6 2.8.1 6.7-.5 8.5-1.3 4.9-2.1 9.8-7.6 11.4-12.8 1.4-4.7 1-13.2-.6-12.2-.5.3-.6-.1-.4-.9.6-1.4-3-6.7-4.5-6.7-.4 0-.6.9-.3 2s1.2 2 1.9 2c.9 0 1.3.8 1.1 2.2-.5 2.9-2.7 3.6-2.7.9 0-2.2-1.8-6-3.5-7.4-.6-.5-.2-.6.8-.3 3.2 1 1.4-1.8-2.4-3.6-3.7-1.9-15.7-2.6-12.9-.8zm10.9 4.1c-2.5 2.5-3.4 1.9-2.5-1.6.6-2.2.9-2.4 2.6-1.5 1.9 1 1.9 1.1-.1 3.1zm-18.9 2c0 1.1-.4 1.8-1 1.4-.5-.3-.7-1.2-.3-2 .7-2.1 1.3-1.9 1.3.6zm-2.2 7c.2 1.3 1.7 3.8 3.3 5.5 1.9 2 2.7 3.6 2.3 4.7-.4 1.2-.1 1.7 1 1.7 2.3 0 1.9 1.3-.7 2.6-2.1.9-2.6.7-4-1.9-.9-1.6-1.7-3.5-1.7-4.3 0-2-2.7-1.7-3.9.3-.8 1.4-1 .6-1.1-3.5 0-3.9.4-5.2 1.5-5.2.9 0 1.2-.6.8-1.6-.4-1.2-.2-1.5.8-1.2.8.2 1.5 1.5 1.7 2.9zm28.5 10.1c.4 1.8.9 4.2 1.2 5.3.3 1.4-.3 2.6-2.2 3.9-1.4 1.1-2.3 1.3-1.8.6 1.2-1.9.8-7.2-.5-8-.9-.6-.9-1.3-.1-2.9 1.6-3 2.7-2.6 3.4 1.1zm4.4 0c-.3.8-.6.5-.6-.6-.1-1.1.2-1.7.5-1.3.3.3.4 1.2.1 1.9zm-16.7 8.3c0 1.3 1 3.4 2.3 4.6l2.2 2.1-4-.6c-4.4-.8-6.5-2.8-6.5-6.3 0-1.9.5-2.3 3-2.3s3 .4 3 2.5zm20.7 24c.3.8.9 1.2 1.4.9 1.2-.7 1.1-1.1-.5-1.7-1-.4-1.3-.1-.9.8zm-7.2 2.1c-2.4 1-8.8 1.8-15.7 2.1-6.5.3-11.5.9-11.2 1.4.3.5 1.6.9 3 .9 2.2 0 2.4.3 2.4 5.3 0 2.9.4 5.7.9 6.3.6.5.5 2.7-.1 5.6-1.1 4.4-1.3 4.7-5.1 5.4-3.4.5-3.8.8-2.5 1.8.8.6 3.8 1.1 6.6 1.1s4.8.3 4.6.7c-.3.5 2.8.8 6.8.8 4 .1 10 .3 13.2.5 3.3.3 5.7.2 5.4-.1-.4-.3-4.5-.9-9.2-1.3-4.8-.5-8.8-1-9-1.2-.2-.2-.6-5.9-1-12.7-.7-11.8-.6-12.2 1.3-12.2 1.1 0 2.3-.5 2.6-1 .4-.6 2.3-.7 4.6-.4 3.7.6 5.6-.7 2.7-1.9-.7-.3-.1-.6 1.5-.6 1.5-.1 2.7-.6 2.7-1.1 0-1.2.4-1.3-4.5.6zm-18.8 28c-.3.3-1.2.4-1.9.1-.8-.3-.5-.6.6-.6 1.1-.1 1.7.2 1.3.5zM209 268.4c0 .2.9.6 2 .9 1.1.3 1.8.1 1.4-.4-.5-.9-3.4-1.3-3.4-.5zm43.5.9c-.4 1-.5 2.1-.1 2.4 1 1 1.8-.4 1.3-2.4-.4-1.7-.4-1.7-1.2 0z"/></g><path fill="#F0F" d="M222.8 211.7c.7.3 1.6.2 1.9-.1.4-.3-.2-.6-1.3-.5-1.1 0-1.4.3-.6.6zm19.9 9c-1.2 1.1-.8 3.3.6 3.3.7 0 1.3-.9 1.3-2 0-2-.7-2.5-1.9-1.3z"/><path fill="#C0F" d="M232.3 164.4c-.6.9 1.5 2.6 3.4 2.6.6 0 1.5.4 1.8 1 .6 1-1.6 8.7-3.8 12.9-.9 1.9-.9 2.5.1 2.8.6.3 1.2 1.1 1.2 1.9 0 .8.8 1.4 1.8 1.4s2.2.4 2.8.8c.5.4 2.7 1.4 4.8 2.1 2.2.8 4.9 2.2 6 3.2 1.1 1.1 2.5 1.9 3.2 1.9.7 0 1.5.6 1.8 1.2.3.7.4.1.1-1.4-.3-1.5 0-3 .6-3.4.9-.5 1-3.7.4-11.3-1-14.8-1.1-15-1.9-15.8-1.1-1.1-21.7-1-22.3.1zm12.1 21.5c.7 1.1-1.4 2-3.2 1.3-1.1-.4-1.1-.6 0-1.3 1.7-1.1 2.6-1.1 3.2 0zm3.6 3.2c0 .5-.4.9-1 .9-.5 0-1-.7-1-1.6 0-.8.5-1.2 1-.9.6.3 1 1 1 1.6zm-33.5 27.8c-.3.5-.1 1.2.5 1.6.5.3 1-.1 1-.9 0-1.8-.6-2.1-1.5-.7zm25.5.4c0 .8.6 2 1.4 2.6 1.2 1 1.3.8.9-.9-.7-2.5-2.3-3.7-2.3-1.7zm.2 23.7c0 1.7.4 2.8.9 2.5 1.1-.8 1.2-5.5.1-5.5-.5 0-.9 1.4-1 3zm14.9 21.8c0 .7-.5 1-1.1.7-.5-.3-1.1-.1-1.1.4-.1.6-.2 1.7-.3 2.3 0 .7-2.3 1.8-5.1 2.4-2.7.7-4.4 1.3-3.7 1.3.6.1 1.2.6 1.2 1.2 0 .8-1.3.9-3.9.5-2.3-.3-4.2-.2-4.6.4-.3.5-1.5 1-2.6 1-1.9 0-2 .4-1.3 12.2.4 6.8.8 12.5 1 12.7.2.2 4.1.7 8.6 1.1 4.6.5 9.2 1.2 10.2 1.6 1.3.5 1.7.4 1.2-.4-.3-.6.1-1.5 1-2 1.5-.8 1.7-2.6 1.7-11.8-.1-6.9-.5-11-1.2-11.2-.6-.2-1.1-1-1.1-1.7s-.5-1.5-1.2-1.7c-.7-.3-.9-1.2-.5-2.2.4-.9 1.1-1.4 1.7-1.1 1.3.8 2.3-1.7 1.7-4.7-.2-1.3-.5-1.7-.6-1z"/></svg>